<svg width="10" height="6" viewBox="0 0 10 6" fill="none" xmlns="http://www.w3.org/2000/svg">
<path d="M4.23984 5.23741C3.93587 4.93586 3.94257 4.45458 4.25481 4.16243L8.01783 0.64161C8.33007 0.349466 8.82961 0.35709 9.13358 0.65864C9.43754 0.960189 9.43084 1.44147 9.1186 1.73362L5.35558 5.25444C5.04334 5.54658 4.54381 5.53896 4.23984 5.23741Z" fill="black"/>
<path d="M5.3323 5.25582C5.64389 4.96433 5.65058 4.48412 5.34724 4.18324L1.67883 0.544579C1.37549 0.243702 0.876993 0.236094 0.565403 0.527584C0.253814 0.819075 0.247123 1.29928 0.55046 1.60016L4.21888 5.23882C4.52222 5.5397 5.02071 5.54731 5.3323 5.25582Z" fill="black"/>
</svg>
