<svg width="24" height="24" viewBox="0 0 24 24" fill="none" xmlns="http://www.w3.org/2000/svg">
<g clip-path="url(#clip0_2614_18122)">
<path d="M21.0552 8.25586H2.88303C2.61436 8.25586 2.39453 8.47568 2.39453 8.74436V20.273C2.39453 20.5416 2.61436 20.7615 2.88303 20.7615H21.0552C21.3239 20.7615 21.5437 20.5416 21.5437 20.273V8.74436C21.5437 8.47568 21.3239 8.25586 21.0552 8.25586ZM6.02897 19.7845H3.37153V16.9023H6.02897V19.7845ZM6.02897 15.9253H3.37153V13.092H6.02897V15.9253ZM6.02897 12.115H3.37153V9.23286H6.02897V12.115ZM9.66341 19.7845H7.00597V16.9023H9.66341V19.7845ZM9.66341 15.9253H7.00597V13.092H9.66341V15.9253ZM9.66341 12.115H7.00597V9.23286H9.66341V12.115ZM13.2978 19.7845H10.6404V16.9023H13.2978V19.7845ZM13.2978 15.9253H10.6404V13.092H13.2978V15.9253ZM13.2978 12.115H10.6404V9.23286H13.2978V12.115ZM16.9323 19.7845H14.2748V16.9023H16.9323V19.7845ZM16.9323 15.9253H14.2748V13.092H16.9323V15.9253ZM16.9323 12.115H14.2748V9.23286H16.9323V12.115ZM20.5667 19.7845H17.9093V16.9023H20.5667V19.7845ZM20.5667 15.9253H17.9093V13.092H20.5667V15.9253ZM20.5667 12.115H17.9093V9.23286H20.5667V12.115Z" fill="#00B6F4"/>
<path d="M16.9656 20.0381L15.9739 20.0772L16.9656 20.0381H16.9753H16.9656ZM16.9656 20.0381L15.9739 20.0772L16.9656 20.0381H16.9753H16.9656ZM16.9656 20.0381L15.9739 20.0772L16.9656 20.0381H16.9753H16.9656ZM16.9656 20.0381L15.9739 20.0772L16.9656 20.0381H16.9753H16.9656ZM16.9656 20.0381L15.9739 20.0772L16.9656 20.0381H16.9753H16.9656ZM16.9656 20.0381L15.9739 20.0772L16.9656 20.0381H16.9753H16.9656ZM16.9656 20.0381L15.9739 20.0772L16.9656 20.0381H16.9753H16.9656ZM16.9656 20.0381L15.9739 20.0772L16.9656 20.0381H16.9753H16.9656ZM16.9656 20.0381L15.9739 20.0772L16.9656 20.0381H16.9753H16.9656ZM16.9656 20.0381L15.9739 20.0772L16.9656 20.0381H16.9753H16.9656ZM16.9656 20.0381L15.9739 20.0772L16.9656 20.0381H16.9753H16.9656ZM16.9656 20.0381L15.9739 20.0772L16.9656 20.0381H16.9753H16.9656ZM16.9656 20.0381L15.9739 20.0772L16.9656 20.0381H16.9753H16.9656ZM16.9656 20.0381L15.9739 20.0772L16.9656 20.0381H16.9753H16.9656ZM16.9656 20.0381L15.9739 20.0772L16.9656 20.0381H16.9753H16.9656ZM16.9656 20.0381L15.9739 20.0772L16.9656 20.0381H16.9753H16.9656ZM16.9656 20.0381L15.9739 20.0772L16.9656 20.0381H16.9753H16.9656ZM16.9656 20.0381L15.9739 20.0772L16.9656 20.0381H16.9753H16.9656ZM22.4465 2.2958H18.9049V1.8073C18.9049 1.00127 18.2454 0.341797 17.4394 0.341797C16.6334 0.341797 15.9739 1.00127 15.9739 1.8073V2.2958H8.0602V1.8073C8.0602 1.00127 7.40073 0.341797 6.5947 0.341797C5.78868 0.341797 5.12921 1.00127 5.12921 1.8073V2.2958H1.58758C0.766901 2.2958 0.0976562 2.96504 0.0976562 3.78572V21.9091C0.0976562 22.7298 0.766901 23.399 1.58758 23.399H22.4465C22.7103 23.399 22.9595 23.3306 23.1793 23.2085C23.6238 22.9593 23.9267 22.4855 23.9365 21.9384C23.9365 21.9286 23.9365 21.9188 23.9365 21.9091V19.5838V17.6982V3.78572C23.9365 2.96504 23.2672 2.2958 22.4465 2.2958ZM16.9509 1.8073C16.9509 1.53862 17.1707 1.3188 17.4394 1.3188C17.7081 1.3188 17.9279 1.53862 17.9279 1.8073V3.7613C17.9279 4.02997 17.7081 4.2498 17.4394 4.2498C17.1707 4.2498 16.9509 4.02997 16.9509 3.7613V1.8073ZM6.1062 1.8073C6.1062 1.53862 6.32603 1.3188 6.5947 1.3188C6.86338 1.3188 7.0832 1.53862 7.0832 1.8073V3.7613C7.0832 4.02997 6.86338 4.2498 6.5947 4.2498C6.32603 4.2498 6.1062 4.02997 6.1062 3.7613V1.8073ZM22.9595 16.8726V18.0988V21.9091C22.9595 22.1924 22.7299 22.422 22.4465 22.422H1.58758C1.30425 22.422 1.07466 22.1924 1.07466 21.9091V7.1808H22.9595V16.8726ZM22.9595 6.2038H1.07466V3.78572C1.07466 3.50239 1.30425 3.2728 1.58758 3.2728H5.12921V3.7613C5.12921 4.56732 5.78868 5.2268 6.5947 5.2268C7.40073 5.2268 8.0602 4.56732 8.0602 3.7613V3.2728H15.9739V3.7613C15.9739 4.56732 16.6334 5.2268 17.4394 5.2268C18.2454 5.2268 18.9049 4.56732 18.9049 3.7613V3.2728H22.4465C22.7299 3.2728 22.9595 3.50239 22.9595 3.78572V6.2038ZM16.9753 20.0381H16.9656L15.9739 20.0772L16.9656 20.0381H16.9753ZM16.9656 20.0381L15.9739 20.0772L16.9656 20.0381H16.9753H16.9656ZM16.9656 20.0381L15.9739 20.0772L16.9656 20.0381H16.9753H16.9656ZM16.9656 20.0381L15.9739 20.0772L16.9656 20.0381H16.9753H16.9656ZM16.9656 20.0381L15.9739 20.0772L16.9656 20.0381H16.9753H16.9656ZM16.9656 20.0381L15.9739 20.0772L16.9656 20.0381H16.9753H16.9656ZM16.9656 20.0381L15.9739 20.0772L16.9656 20.0381H16.9753H16.9656ZM16.9656 20.0381L15.9739 20.0772L16.9656 20.0381H16.9753H16.9656ZM16.9656 20.0381L15.9739 20.0772L16.9656 20.0381H16.9753H16.9656ZM16.9656 20.0381L15.9739 20.0772L16.9656 20.0381H16.9753H16.9656ZM16.9656 20.0381L15.9739 20.0772L16.9656 20.0381H16.9753H16.9656ZM16.9656 20.0381L15.9739 20.0772L16.9656 20.0381H16.9753H16.9656ZM16.9656 20.0381L15.9739 20.0772L16.9656 20.0381H16.9753H16.9656ZM16.9656 20.0381L15.9739 20.0772L16.9656 20.0381H16.9753H16.9656ZM16.9656 20.0381L15.9739 20.0772L16.9656 20.0381H16.9753H16.9656ZM16.9656 20.0381L15.9739 20.0772L16.9656 20.0381H16.9753H16.9656ZM16.9656 20.0381L15.9739 20.0772L16.9656 20.0381H16.9753H16.9656ZM16.9656 20.0381L15.9739 20.0772L16.9656 20.0381H16.9753H16.9656ZM16.9656 20.0381L15.9739 20.0772L16.9656 20.0381H16.9753H16.9656ZM16.9656 20.0381L15.9739 20.0772L16.9656 20.0381H16.9753H16.9656ZM16.9656 20.0381L15.9739 20.0772L16.9656 20.0381H16.9753H16.9656ZM16.9656 20.0381L15.9739 20.0772L16.9656 20.0381H16.9753H16.9656ZM16.9656 20.0381L15.9739 20.0772L16.9656 20.0381H16.9753H16.9656Z" fill="#00B6F4"/>
<path d="M23.888 21.6455C23.8783 22.1877 23.5754 22.6616 23.1309 22.9156C23.463 22.5492 23.7219 22.1194 23.888 21.6455Z" fill="#00B6F4"/>
<path d="M16.9174 19.7451L15.9258 19.7842L16.9174 19.7451Z" fill="#00B6F4"/>
</g>
<defs>
<clipPath id="clip0_2614_18122">
<rect width="24" height="24" fill="white"/>
</clipPath>
</defs>
</svg>
